<svg xmlns="http://www.w3.org/2000/svg" xmlns:xlink="http://www.w3.org/1999/xlink">
<style type="text/css">
	.st0{fill:#000000;}
</style>
<g>
	<path class="st0" d="M72.8,17.2v1.9l2.9,0.2c0.3,0,0.5,0.1,0.7,0.3c0.2,0.2,0.2,0.4,0.2,0.6V29c-0.1,0-0.2,0-0.4,0.1
		c-0.2,0.1-0.5,0.1-0.9,0.2c-0.3,0.1-0.7,0.2-1.2,0.2c-0.4,0.1-0.9,0.1-1.4,0.1c-1.7,0-3.3-0.3-4.7-0.9c-1.4-0.6-2.6-1.5-3.6-2.6
		c-1-1.1-1.7-2.5-2.3-4.2c-0.5-1.6-0.8-3.5-0.8-5.6c0-2.1,0.3-3.9,0.8-5.5c0.5-1.6,1.3-2.9,2.2-4c0.9-1.1,2.1-1.9,3.4-2.5
		c1.3-0.6,2.8-0.8,4.4-0.8c0.5,0,1,0,1.5,0.1C74.2,3.9,74.6,4,75,4.1c0.4,0.1,0.7,0.2,1,0.4c0.3,0.1,0.6,0.2,0.8,0.3
		C77,4.9,77.2,5,77.4,5.2c0.2,0.2,0.3,0.4,0.3,0.7l0.7,4H81V2.7c-0.7-0.2-1.3-0.3-2-0.5c-0.7-0.2-1.4-0.3-2.1-0.5
		c-0.7-0.1-1.4-0.3-2.2-0.4c-0.8-0.1-1.5-0.1-2.4-0.1c-2.5,0-4.7,0.4-6.7,1.1c-2,0.7-3.6,1.8-5,3.1c-1.4,1.3-2.4,3-3.2,4.9
		c-0.7,1.9-1.1,4-1.1,6.3c0,1.4,0.2,2.7,0.5,4c0.3,1.3,0.7,2.5,1.3,3.7c0.6,1.1,1.3,2.2,2.2,3.2c0.9,1,1.9,1.8,3,2.5
		c1.1,0.7,2.4,1.2,3.8,1.6c1.4,0.4,2.9,0.6,4.6,0.6c1.2,0,2.3-0.1,3.5-0.3c1.1-0.2,2.1-0.4,3-0.6c1-0.3,2-0.6,2.8-0.9V20.2
		c0-0.2,0.1-0.4,0.2-0.6c0.2-0.2,0.4-0.3,0.7-0.3l2.2-0.2v-1.9H72.8z"/>
	<g>
		<path class="st0" d="M55.7,29.2C55,28.9,54.4,28.5,54,28c-0.4-0.5-0.7-1.1-0.9-1.7c-0.2-0.6-0.4-1.3-0.5-2
			c-0.2-0.7-0.3-1.4-0.5-2.1c-0.2-0.7-0.5-1.4-0.9-2.1c-0.4-0.6-1-1.2-1.7-1.7c-0.7-0.5-1.7-0.9-2.9-1.2c0.9-0.2,1.8-0.5,2.7-0.9
			c0.9-0.4,1.6-0.8,2.3-1.4c0.7-0.6,1.2-1.3,1.6-2.1c0.4-0.8,0.6-1.8,0.6-3c0-1.5-0.2-2.7-0.7-3.7c-0.5-1-1.2-1.8-2.1-2.4
			c-0.9-0.6-2.1-1.1-3.4-1.3c-1.3-0.3-2.8-0.4-4.5-0.4h-1.4H40h-7.5v1.9L35.3,4c0.2,0,0.4,0.1,0.5,0.3c0.1,0.2,0.2,0.4,0.1,0.6
			L31,25.5L23.9,1.9h-3.4l-6.9,22.9L8.4,4.9c0-0.2,0-0.4,0-0.6C8.5,4.2,8.6,4.1,8.8,4l2.6-0.3V1.9H1.4v1.9l2.6,0.5l7.2,27.9h3.2
			l7.2-24.4l7.4,24.4h3.2c0,0,6.7-27.9,6.7-27.9c0-0.1,0.2-0.2,0.3-0.2C40,4,41.7,4,42.5,4.1c0.7,0.1,1.5,0.2,2.2,0.3
			c1,0.3,1.8,0.6,2.4,1.1c0.6,0.5,1.1,1.1,1.4,1.8c0.3,0.7,0.4,1.6,0.4,2.5c0,1.2-0.2,2.2-0.5,3c-0.3,0.8-0.8,1.4-1.5,1.9
			c-0.6,0.5-1.4,0.8-2.4,1c-0.9,0.2-2,0.3-3.2,0.3c-0.3,0-0.7,0-1,0l-0.5,2.1c0,0,1.1,0,1.3,0c1.3,0,2.4,0.2,3.3,0.6
			c0.8,0.4,1.5,0.9,2.1,1.6c0.5,0.7,0.9,1.4,1.2,2.2c0.3,0.8,0.6,1.7,0.8,2.5c0.2,0.9,0.5,1.7,0.8,2.5c0.3,0.8,0.7,1.6,1.2,2.2
			c0.5,0.7,1.2,1.2,2,1.6c0.8,0.4,1.9,0.6,3.2,0.6c0.3,0,0.6,0,1-0.1c0.3-0.1,0.6-0.1,0.8-0.2c0.3-0.1,0.5-0.1,0.7-0.2
			c0.2-0.1,0.3-0.1,0.4-0.1v-2C57.4,29.6,56.4,29.5,55.7,29.2z"/>
	</g>
</g>
</svg>